<svg width="20" height="20" fill="none" xmlns="http://www.w3.org/2000/svg" stroke="orangeT1" iconsize="20" class="Icon-sc-1iwi4w1-0 hPXzJz"><path d="M18.066 16.735a5.886 5.886 0 01-4.193 1.739 5.879 5.879 0 01-4.192-1.74l-6.416-6.41A5.893 5.893 0 011.531 6.13c0-1.584.616-3.074 1.734-4.192a1.386 1.386 0 011.966 0l2.143 2.143a1.386 1.386 0 010 1.965l-.914.914a2.362 2.362 0 000 3.34l3.238 3.244a2.362 2.362 0 003.341 0l.918-.919c.524-.523 1.442-.523 1.966.005l2.143 2.138a1.386 1.386 0 010 1.966zm1.082-3.044l-2.143-2.143a2.921 2.921 0 00-4.13 0l-.914.914a.83.83 0 01-1.18 0L7.538 9.224a.836.836 0 010-1.18l.918-.919c.55-.55.852-1.282.852-2.063 0-.78-.302-1.513-.852-2.063L6.313.856A2.907 2.907 0 004.25 0a2.918 2.918 0 00-2.063.856A7.41 7.41 0 000 6.131a7.41 7.41 0 002.187 5.275l6.411 6.411A7.417 7.417 0 0013.873 20a7.407 7.407 0 005.27-2.183A2.9 2.9 0 0020 15.754c0-.78-.302-1.513-.852-2.063z" fill="#666"></path></svg>