<svg width="20" height="20" fill="none" xmlns="http://www.w3.org/2000/svg" iconsize="20" class="Icon-sc-1iwi4w1-0 yCMXi"><path d="M15.896 12.548a2.508 2.508 0 012.506 2.506 2.508 2.508 0 01-2.506 2.505 2.508 2.508 0 01-2.505-2.505 2.508 2.508 0 012.505-2.506zm0 3.716a1.21 1.21 0 000-2.42 1.21 1.21 0 000 2.42zM4.708 12.548a2.508 2.508 0 012.506 2.506 2.508 2.508 0 01-2.506 2.505 2.508 2.508 0 01-2.505-2.505 2.508 2.508 0 012.505-2.506zm0 3.716a1.21 1.21 0 000-2.42c-.667 0-1.21.543-1.21 1.21 0 .667.543 1.21 1.21 1.21z" fill="#333"></path><path d="M17.538 5.66c.242 0 .465.135.576.35l1.814 3.52a.648.648 0 01.072.298v5.227c0 .357-.29.647-.648.647h-1.577v-1.296a.929.929 0 00.93-.928V9.985l-1.283-2.488a1 1 0 00-.889-.542h-4.33V5.66h5.335zM6.588 14.406h7.386v1.296H6.588v-1.296z" fill="#333"></path><path d="M.648 2.44h11.555c.358 0 .648.29.648.648v11.966h-1.296V4.736a1 1 0 00-1-1H2.296a1 1 0 00-1 1v8.67a1 1 0 001 1h.555v1.296H.648A.648.648 0 010 15.054V3.088c0-.357.29-.648.648-.648z" fill="#333"></path><path d="M12.203 9.2h7.149v1.297h-7.15V9.2z" fill="#333"></path></svg>