<svg width="28" height="28" fill="none" xmlns="http://www.w3.org/2000/svg" iconsize="28" class="Icon-sc-1iwi4w1-0 iRATWY"><path d="M20.025 22.087l-6.007-6.007-6.025 6.025c-.647.647-1.579.773-2.225.127-.647-.647-.49-1.549.156-2.196l6.025-6.024-6.037-6.038c-.647-.646-.791-1.56-.144-2.207.646-.647 1.54-.483 2.188.164l6.037 6.037 6.044-6.045c.647-.646 1.549-.803 2.196-.156.647.646.52 1.578-.127 2.225l-6.045 6.044 6.008 6.008c.646.646.81 1.54.164 2.188-.647.646-1.561.502-2.208-.145z" fill="#333"></path></svg>