<svg viewBox="0 0 32 32" fill="none" xmlns="http://www.w3.org/2000/svg" iconsize="40" class="Icon-sc-1iwi4w1-0 ggQRJq"><g clip-path="url(#cash_svg__clip0)"><path d="M24.024 13.609v5.02l3.177-1.204L23.17 7.33a1 1 0 00-1.3-.558L4.8 13.61" fill="#56BB8A"></path><path d="M4.8 13.456h21.4a1 1 0 011 1v10.41a1 1 0 01-1 1H5.8a1 1 0 01-1-1v-11.41z" fill="#56BB8A"></path><path d="M6.047 17.886c1.325-.28 2.362-1.012 2.758-1.948H23.2c.396.936 1.433 1.668 2.758 1.948v3.55c-1.325.28-2.362 1.012-2.758 1.948H8.805c-.397-.936-1.433-1.668-2.758-1.948v-3.55z" fill="#91E5BD"></path><path d="M15.802 21.824a2.285 2.285 0 002.289-2.282 2.285 2.285 0 00-2.289-2.282 2.285 2.285 0 00-2.288 2.282 2.285 2.285 0 002.288 2.282z" fill="#56BB8A"></path><path d="M23.71 13.608l-1.086-2.784-.05-.122a3.215 3.215 0 01-2.8-1.201l-.122.049-9.814 4.058h13.871z" fill="#91E5BD"></path><path d="M10.624 19.999a.457.457 0 100-.914.457.457 0 000 .914zM20.692 19.999a.457.457 0 10.001-.914.457.457 0 000 .914z" fill="#56BB8A"></path></g><defs><clipPath id="cash_svg__clip0"><path fill="#fff" d="M0 0h32v32H0z"></path></clipPath></defs></svg>